# xmcd
#
# Track frame offsets:
#	150
#	18764
#	41714
#	59768
#	77542
#	94613
#	115348
#	132314
#	147662
#
# Disc length: 2200 seconds
#
# Revision: 16
# Processed by: cddbd v1.5.2PL0 Copyright (c) Steve Scherf et al.
# Submitted via: audiograbber 1.83.01
#
DISCID=7a089609
DTITLE=Bachman-Turner Overdrive - Classic Album Set [2016] [CD 3) - Not Fragile
DYEAR=1974
DGENRE=Rock
TTITLE0=Not Fragile
TTITLE1=Rock Is My Life, And This Is My Song
TTITLE2=Roll On Down The Highway
TTITLE3=You Ain't Seen Nothing Yet
TTITLE4=Free Wheelin'
TTITLE5=Sledgehammer
TTITLE6=Blue Moanin'
TTITLE7=Second Hand
TTITLE8=Givin' It All Away
EXTD=
EXTT0=
EXTT1=
EXTT2=
EXTT3=
EXTT4=
EXTT5=
EXTT6=
EXTT7=
EXTT8=
PLAYORDER=
